<?xml version="1.0" encoding="iso-8859-1"?>
<!-- Generator: Adobe Illustrator 19.0.0, SVG Export Plug-In . SVG Version: 6.00 Build 0)  -->
<svg version="1.1" id="Capa_1" xmlns="http://www.w3.org/2000/svg" xmlns:xlink="http://www.w3.org/1999/xlink" x="0px" y="0px"
	 viewBox="0 0 368 368" style="enable-background:new 0 0 368 368;" xml:space="preserve">
<path style="fill:#CCE4FF;" d="M184,8c97.2,0,176,78.8,176,176s-78.8,176-176,176S8,281.2,8,184S86.8,8,184,8z M296,208v-48
	c0-4.4-3.6-8-8-8H184v-48L72,184l112,80v-48h104C292.4,216,296,212.4,296,208z"/>
<g>
	<path style="fill:#007AFF;" d="M184,0C82.536,0,0,82.544,0,184s82.536,184,184,184s184-82.544,184-184S285.464,0,184,0z M184,352
		c-92.632,0-168-75.36-168-168S91.368,16,184,16s168,75.36,168,168S276.632,352,184,352z"/>
	<path style="fill:#007AFF;" d="M288,144h-96v-40c0-3-1.672-5.744-4.336-7.112c-2.672-1.376-5.88-1.136-8.312,0.6l-112,80
		C65.248,178.992,64,181.416,64,184c0,2.584,1.248,5.008,3.352,6.512l112,80C180.736,271.496,182.36,272,184,272
		c1.248,0,2.504-0.296,3.664-0.888C190.328,269.744,192,267,192,264v-40h96c8.824,0,16-7.176,16-16v-48
		C304,151.176,296.824,144,288,144z M288,208H184c-4.424,0-8,3.584-8,8v32.456L85.768,184L176,119.544V152c0,4.416,3.576,8,8,8h104
		V208z"/>
</g>
<g>
</g>
<g>
</g>
<g>
</g>
<g>
</g>
<g>
</g>
<g>
</g>
<g>
</g>
<g>
</g>
<g>
</g>
<g>
</g>
<g>
</g>
<g>
</g>
<g>
</g>
<g>
</g>
<g>
</g>
</svg>
