<svg width="537" height="413" viewBox="0 0 537 413" fill="none" xmlns="http://www.w3.org/2000/svg">
<path d="M169.772 118.728C169.42 116.019 171.224 113.628 173.691 112.393L255.594 71.4098C263.179 67.6141 272.13 67.5586 279.763 71.2598L362.976 111.609C365.234 112.704 367.111 114.593 367.49 117.048C367.971 120.164 365.906 122.942 363.113 124.467L280.956 169.329C272.691 173.842 262.641 173.775 254.438 169.153L173.259 123.408C171.462 122.396 170.036 120.753 169.772 118.728Z" fill="#3E73FA"/>
<path d="M221.645 0.248495C222.708 -0.293268 224.014 0.0783524 224.622 1.09541L240.25 27.2382C248.194 40.5279 243.118 57.6795 229.176 64.656L170.951 93.7918C157.986 100.279 142.147 95.4999 135.071 82.9661L119.286 55.0073C118.666 53.9087 119.089 52.5214 120.221 51.9444L221.645 0.248495Z" fill="#3E73FA"/>
<path d="M390.542 104.265C391.374 104.027 392.04 103.425 392.434 102.664L417.752 53.8462C418.334 52.7236 417.856 51.3481 416.699 50.814L307.11 0.230259C305.992 -0.285809 304.661 0.181092 304.124 1.27804L281.596 47.2674C281.047 48.3885 280.885 49.6739 281.321 50.8426C281.733 51.9505 282.627 52.8006 283.7 53.321L388.283 104.032C388.986 104.373 389.789 104.48 390.542 104.265Z" fill="#3E73FA"/>
<path d="M165.568 139.587C163.084 138.188 160.099 137.584 157.512 138.787C154.456 140.208 153.104 143.573 153.104 146.907V209.751C153.104 210.561 153.55 211.308 154.269 211.7L166.805 218.538C175.064 223.043 185.103 222.977 193.301 218.364L236.137 194.255C239.199 192.532 241.599 189.578 241.28 186.113C241.012 183.203 238.884 180.901 236.314 179.453L165.568 139.587Z" fill="#3E73FA"/>
<path d="M382.533 136.525C380.843 135.859 378.955 136.175 377.363 137.044L271.996 194.58L210.054 229.441C207.973 230.613 206.267 232.466 205.914 234.805C205.439 237.956 207.537 240.756 210.362 242.297L266.14 272.722C266.856 273.113 267.73 273.09 268.424 272.662L384.936 200.898C385.596 200.491 385.998 199.777 385.998 199.008V142.217C385.998 139.79 384.816 137.424 382.533 136.525Z" fill="#3E73FA"/>
<path d="M50.92 338.648V392H37.924V370.036H17.708V392H4.712V338.648H17.708V359.548H37.924V338.648H50.92ZM57.7178 370.72C57.7178 366.363 58.5285 362.537 60.1498 359.244C61.8218 355.951 64.0765 353.417 66.9138 351.644C69.7512 349.871 72.9178 348.984 76.4138 348.984C79.4032 348.984 82.0125 349.592 84.2418 350.808C86.5218 352.024 88.2698 353.62 89.4858 355.596V349.592H102.482V392H89.4858V385.996C88.2192 387.972 86.4458 389.568 84.1658 390.784C81.9365 392 79.3272 392.608 76.3378 392.608C72.8925 392.608 69.7512 391.721 66.9138 389.948C64.0765 388.124 61.8218 385.565 60.1498 382.272C58.5285 378.928 57.7178 375.077 57.7178 370.72ZM89.4858 370.796C89.4858 367.553 88.5738 364.995 86.7498 363.12C84.9765 361.245 82.7978 360.308 80.2138 360.308C77.6298 360.308 75.4258 361.245 73.6018 363.12C71.8285 364.944 70.9418 367.477 70.9418 370.72C70.9418 373.963 71.8285 376.547 73.6018 378.472C75.4258 380.347 77.6298 381.284 80.2138 381.284C82.7978 381.284 84.9765 380.347 86.7498 378.472C88.5738 376.597 89.4858 374.039 89.4858 370.796ZM109.3 370.72C109.3 366.363 110.111 362.537 111.732 359.244C113.404 355.951 115.659 353.417 118.496 351.644C121.333 349.871 124.5 348.984 127.996 348.984C130.783 348.984 133.316 349.567 135.596 350.732C137.927 351.897 139.751 353.468 141.068 355.444V335.76H154.064V392H141.068V385.92C139.852 387.947 138.104 389.568 135.824 390.784C133.595 392 130.985 392.608 127.996 392.608C124.5 392.608 121.333 391.721 118.496 389.948C115.659 388.124 113.404 385.565 111.732 382.272C110.111 378.928 109.3 375.077 109.3 370.72ZM141.068 370.796C141.068 367.553 140.156 364.995 138.332 363.12C136.559 361.245 134.38 360.308 131.796 360.308C129.212 360.308 127.008 361.245 125.184 363.12C123.411 364.944 122.524 367.477 122.524 370.72C122.524 373.963 123.411 376.547 125.184 378.472C127.008 380.347 129.212 381.284 131.796 381.284C134.38 381.284 136.559 380.347 138.332 378.472C140.156 376.597 141.068 374.039 141.068 370.796ZM169.926 345.184C167.646 345.184 165.771 344.525 164.302 343.208C162.883 341.84 162.174 340.168 162.174 338.192C162.174 336.165 162.883 334.493 164.302 333.176C165.771 331.808 167.646 331.124 169.926 331.124C172.155 331.124 173.979 331.808 175.398 333.176C176.867 334.493 177.602 336.165 177.602 338.192C177.602 340.168 176.867 341.84 175.398 343.208C173.979 344.525 172.155 345.184 169.926 345.184ZM176.462 397.472C176.462 402.691 175.145 406.44 172.51 408.72C169.875 411.051 166.202 412.216 161.49 412.216H156.398V401.196H159.514C160.933 401.196 161.946 400.917 162.554 400.36C163.162 399.803 163.466 398.891 163.466 397.624V349.592H176.462V397.472ZM192.342 345.184C190.062 345.184 188.187 344.525 186.718 343.208C185.299 341.84 184.59 340.168 184.59 338.192C184.59 336.165 185.299 334.493 186.718 333.176C188.187 331.808 190.062 331.124 192.342 331.124C194.571 331.124 196.395 331.808 197.814 333.176C199.283 334.493 200.018 336.165 200.018 338.192C200.018 340.168 199.283 341.84 197.814 343.208C196.395 344.525 194.571 345.184 192.342 345.184ZM198.802 349.592V392H185.806V349.592H198.802ZM262.332 349.136C267.601 349.136 271.781 350.732 274.872 353.924C278.013 357.116 279.584 361.549 279.584 367.224V392H266.664V368.972C266.664 366.236 265.929 364.133 264.46 362.664C263.041 361.144 261.065 360.384 258.532 360.384C255.998 360.384 253.997 361.144 252.528 362.664C251.109 364.133 250.4 366.236 250.4 368.972V392H237.48V368.972C237.48 366.236 236.745 364.133 235.276 362.664C233.857 361.144 231.881 360.384 229.348 360.384C226.814 360.384 224.813 361.144 223.344 362.664C221.925 364.133 221.216 366.236 221.216 368.972V392H208.22V349.592H221.216V354.912C222.533 353.139 224.256 351.745 226.384 350.732C228.512 349.668 230.918 349.136 233.604 349.136C236.796 349.136 239.633 349.82 242.116 351.188C244.649 352.556 246.625 354.507 248.044 357.04C249.513 354.709 251.514 352.809 254.048 351.34C256.581 349.871 259.342 349.136 262.332 349.136ZM328.649 370.112C328.649 371.328 328.573 372.595 328.421 373.912H299.009C299.212 376.547 300.048 378.573 301.517 379.992C303.037 381.36 304.886 382.044 307.065 382.044C310.308 382.044 312.562 380.676 313.829 377.94H327.661C326.952 380.727 325.66 383.235 323.785 385.464C321.961 387.693 319.656 389.441 316.869 390.708C314.082 391.975 310.966 392.608 307.521 392.608C303.366 392.608 299.668 391.721 296.425 389.948C293.182 388.175 290.649 385.641 288.825 382.348C287.001 379.055 286.089 375.204 286.089 370.796C286.089 366.388 286.976 362.537 288.749 359.244C290.573 355.951 293.106 353.417 296.349 351.644C299.592 349.871 303.316 348.984 307.521 348.984C311.625 348.984 315.273 349.845 318.465 351.568C321.657 353.291 324.14 355.748 325.913 358.94C327.737 362.132 328.649 365.856 328.649 370.112ZM315.349 366.692C315.349 364.463 314.589 362.689 313.069 361.372C311.549 360.055 309.649 359.396 307.369 359.396C305.19 359.396 303.341 360.029 301.821 361.296C300.352 362.563 299.44 364.361 299.085 366.692H315.349ZM349.026 370.72C349.026 366.363 349.837 362.537 351.458 359.244C353.13 355.951 355.385 353.417 358.222 351.644C361.06 349.871 364.226 348.984 367.722 348.984C370.509 348.984 373.042 349.567 375.322 350.732C377.653 351.897 379.477 353.468 380.794 355.444V335.76H393.79V392H380.794V385.92C379.578 387.947 377.83 389.568 375.55 390.784C373.321 392 370.712 392.608 367.722 392.608C364.226 392.608 361.06 391.721 358.222 389.948C355.385 388.124 353.13 385.565 351.458 382.272C349.837 378.928 349.026 375.077 349.026 370.72ZM380.794 370.796C380.794 367.553 379.882 364.995 378.058 363.12C376.285 361.245 374.106 360.308 371.522 360.308C368.938 360.308 366.734 361.245 364.91 363.12C363.137 364.944 362.25 367.477 362.25 370.72C362.25 373.963 363.137 376.547 364.91 378.472C366.734 380.347 368.938 381.284 371.522 381.284C374.106 381.284 376.285 380.347 378.058 378.472C379.882 376.597 380.794 374.039 380.794 370.796ZM443.168 370.112C443.168 371.328 443.092 372.595 442.94 373.912H413.528C413.731 376.547 414.567 378.573 416.036 379.992C417.556 381.36 419.406 382.044 421.584 382.044C424.827 382.044 427.082 380.676 428.348 377.94H442.18C441.471 380.727 440.179 383.235 438.304 385.464C436.48 387.693 434.175 389.441 431.388 390.708C428.602 391.975 425.486 392.608 422.04 392.608C417.886 392.608 414.187 391.721 410.944 389.948C407.702 388.175 405.168 385.641 403.344 382.348C401.52 379.055 400.608 375.204 400.608 370.796C400.608 366.388 401.495 362.537 403.268 359.244C405.092 355.951 407.626 353.417 410.868 351.644C414.111 349.871 417.835 348.984 422.04 348.984C426.144 348.984 429.792 349.845 432.984 351.568C436.176 353.291 438.659 355.748 440.432 358.94C442.256 362.132 443.168 365.856 443.168 370.112ZM429.868 366.692C429.868 364.463 429.108 362.689 427.588 361.372C426.068 360.055 424.168 359.396 421.888 359.396C419.71 359.396 417.86 360.029 416.34 361.296C414.871 362.563 413.959 364.361 413.604 366.692H429.868ZM504.137 349.136C509.406 349.136 513.586 350.732 516.677 353.924C519.818 357.116 521.389 361.549 521.389 367.224V392H508.469V368.972C508.469 366.236 507.734 364.133 506.265 362.664C504.846 361.144 502.87 360.384 500.337 360.384C497.803 360.384 495.802 361.144 494.333 362.664C492.914 364.133 492.205 366.236 492.205 368.972V392H479.285V368.972C479.285 366.236 478.55 364.133 477.081 362.664C475.662 361.144 473.686 360.384 471.153 360.384C468.619 360.384 466.618 361.144 465.149 362.664C463.73 364.133 463.021 366.236 463.021 368.972V392H450.025V349.592H463.021V354.912C464.338 353.139 466.061 351.745 468.189 350.732C470.317 349.668 472.723 349.136 475.409 349.136C478.601 349.136 481.438 349.82 483.921 351.188C486.454 352.556 488.43 354.507 489.849 357.04C491.318 354.709 493.319 352.809 495.853 351.34C498.386 349.871 501.147 349.136 504.137 349.136Z" fill="#3E73FA"/>
</svg>
